# xmcd
#
# Track frame offsets: 
#        150
#        20617
#        46366
#        63210
#        79305
#        93738
#        114350
#        133739
#        156189
#        174099
#        189045
#        214484
#
# Disc length: 3403 seconds
#
# Revision: 2
# Processed by: cddbd v1.5.2PL0 Copyright (c) Steve Scherf et al.
# Submitted via: ExactAudioCopyFreeDBPlugin 1.0
#
DISCID=9d0d490c
DTITLE=Benjamin Biolay - Trash YéYé
DYEAR=2007
DGENRE=
TTITLE0=Bien Avant
TTITLE1=Douleureux Dedans
TTITLE2=Regarder La Lumière
TTITLE3=Dans Ta Bouche
TTITLE4=Dans La Merco Benz
TTITLE5=La Garçonnière
TTITLE6=La Chambre D'amis
TTITLE7=Qu'est-Ce Que Ça Peut Faire
TTITLE8=Cactus Concerto
TTITLE9=Rendez-Vous Qui Sait
TTITLE10=Laisse Aboyer Les Chiens
TTITLE11=De Beaux Souvenirs
EXTD=
EXTT0=
EXTT1=
EXTT2=
EXTT3=
EXTT4=
EXTT5=
EXTT6=
EXTT7=
EXTT8=
EXTT9=
EXTT10=
EXTT11=
PLAYORDER=
